<?xml version="1.0" encoding="utf-8"?>
<!-- Generator: Adobe Illustrator 26.3.1, SVG Export Plug-In . SVG Version: 6.00 Build 0)  -->
<svg version="1.1" id="Calque_1" xmlns="http://www.w3.org/2000/svg" xmlns:xlink="http://www.w3.org/1999/xlink" x="0px" y="0px"
	 viewBox="0 0 97 31.8" style="enable-background:new 0 0 97 31.8;" xml:space="preserve">
<style type="text/css">
	.st0{fill:#168268;}
	.st1{fill:#D7CE3C;}
	.st2{fill:#999334;}
	.st3{fill:#9B9635;}
	.st4{fill:#ACA53F;}
	.st5{fill:#FDFEFE;}
	.st6{fill:#FEFEFE;}
	.st7{fill:#B8B037;}
	.st8{fill:#9E9835;}
	.st9{fill:#B5AE37;}
	.st10{fill:#A29C35;}
	.st11{fill:#AFA834;}
	.st12{fill:#ACA535;}
	.st13{fill:#A59E35;}
	.st14{fill:#AAA235;}
	.st15{fill:#B3AE38;}
	.st16{fill:#188369;}
	.st17{fill:#178368;}
	.st18{fill:#198469;}
	.st19{fill:#168267;}
	.st20{fill:#188469;}
	.st21{fill:#188368;}
	.st22{fill:#178268;}
	.st23{fill:#178269;}
	.st24{fill:#198369;}
	.st25{fill:#158267;}
</style>
<g>
	<path class="st0" d="M19.5,3.2c1.2,0.1,2.3,0.4,3.4,0.9c4.3,1.9,7,5.2,7.8,9.9c1.1,6.4-2.6,12.7-8.8,14.7c-2,0.7-4,0.8-6.1,0.5
		c-0.1,0-0.1,0-0.2,0c-0.3,0-0.6-0.1-0.9-0.2c-1.4-0.4-2.7-1-3.8-1.8c-0.1-0.1-0.2-0.1-0.3-0.2c-0.5-0.4-1-0.8-1.4-1.2
		c-0.4-0.4-0.8-0.9-1.2-1.4c-0.4-0.5-0.7-1-1-1.6c-0.5-1-0.9-2-1.2-3c0-0.1-0.1-0.2-0.1-0.3c-0.2-0.7-0.3-1.5-0.3-2.3
		c0-0.7,0-1.3,0.1-2c0.1-0.5,0.2-1.1,0.3-1.6c0.1-0.5,0.3-1,0.4-1.4c0.2-0.5,0.4-0.9,0.6-1.4c0.3-0.5,0.6-1,0.9-1.4
		C8.1,8.6,8.6,8,9,7.5c1.1-1.1,2.3-2,3.6-2.7c1.5-0.8,3-1.2,4.6-1.4C18,3.2,18.8,3.3,19.5,3.2z"/>
	<path class="st1" d="M10.7,26.9c1.3,0.9,2.7,1.5,4.1,2c-0.1,0.2-0.3,0.1-0.4,0.1c-0.6-0.1-1.2-0.1-1.8-0.3c-0.5-0.1-1-0.3-1.5-0.5
		c-0.3-0.1-0.6-0.3-0.9-0.4c-2.4-1.2-4.2-3-5.5-5.4C3.7,20.7,3.2,19,3,17.1c-0.3-3.6,0.7-6.8,2.9-9.6c2-2.6,4.6-4.2,7.8-4.8
		c1.7-0.3,3.5-0.3,5.2,0.2c0,0,0.1,0,0.1,0.1C19,3,18.9,3,18.8,3c-0.6,0-1.1,0-1.7,0.1c-1.5,0.1-2.9,0.5-4.2,1.1
		c-1.1,0.5-2.1,1.1-3,1.8C9.5,6.4,9.1,6.8,8.8,7.2c-0.5,0.5-1,1-1.4,1.6c-0.3,0.5-0.6,0.9-0.9,1.4c-0.2,0.5-0.5,0.9-0.6,1.4
		c-0.2,0.5-0.3,1-0.5,1.5c-0.1,0.5-0.2,1-0.3,1.5c-0.1,0.6-0.1,1.3-0.1,2c0,0.8,0.1,1.7,0.3,2.5C5.9,21,6.7,22.8,8,24.3
		C8.8,25.3,9.7,26.1,10.7,26.9z"/>
	<path class="st2" d="M8.7,7.2C9.2,6.6,9.8,6,10.5,5.6c1.5-1.1,3.2-1.8,5-2.3C16.3,3.1,17.1,3,18,3c0.4,0,0.7-0.1,1.1,0
		c0.2,0,0.3,0.2,0.4,0.2c-0.1,0.1-0.3,0.1-0.4,0.1c-2.2,0-4.3,0.5-6.2,1.5c-1.3,0.6-2.4,1.5-3.4,2.5C9.3,7.3,9.2,7.4,9,7.5
		C9,7.5,8.9,7.4,8.8,7.4C8.7,7.3,8.7,7.3,8.7,7.2z"/>
	<path class="st3" d="M11,28.1c0.6,0.2,1.1,0.4,1.7,0.5c0.6,0.1,1.3,0.2,1.9,0.3c0.1,0,0.2,0,0.2,0c0.3,0.1,0.6,0.2,0.9,0.3
		c-0.6,0.2-1.2,0-1.8-0.1c-1-0.1-1.9-0.4-2.8-0.8C11,28.2,11,28.2,11,28.1C10.9,28.1,11,28.1,11,28.1z"/>
	<path class="st4" d="M11,28.1C11,28.1,11,28.1,11,28.1c-0.3,0-0.6-0.2-0.9-0.3c0,0,0.1,0,0.1,0C10.5,27.9,10.8,27.9,11,28.1z"/>
	<path class="st5" d="M17.5,7c0.1,0.1,0.1,0.2,0.1,0.3c0,2.3,0,4.5,0,6.8c0,0.2,0,0.3,0.3,0.3c0.6,0,0.6,0,0.6-0.6c0-2,0-3.9,0-5.9
		c0-0.2,0-0.3-0.2-0.4c-0.1-0.1-0.1-0.3,0-0.4c0.1-0.1,0.3-0.1,0.4,0c0.1,0.1,0.1,0.3,0,0.4c-0.1,0.1-0.2,0.2-0.2,0.4
		c0,2.1,0,4.2,0,6.3c0,0.2,0,0.2,0.2,0.2c0.7,0,0.7,0,0.7-0.7c0-1.9,0-3.8,0-5.7c0-0.1,0-0.2,0.1-0.3C19.6,7.8,19.6,8,19.6,8
		c0,2,0,4,0,6.1c0,0.2,0,0.3,0.3,0.3c0.4,0,0.4,0,0.4-0.4c0-1.5,0-3,0-4.5c0-0.2,0-0.3-0.2-0.4c-0.1-0.1-0.1-0.3,0-0.4
		c0.1-0.1,0.3-0.1,0.4,0c0.1,0.1,0.2,0.3,0,0.4c-0.2,0.1-0.2,0.3-0.2,0.4c0,1.6,0,3.1,0,4.7c0,0.2,0.1,0.2,0.2,0.2
		c1.7,0,3.4,0,5.1,0c0.1,0,0.1,0,0.2,0c0.1,0,0.1,0,0.1,0.1c0,0.1-0.1,0.1-0.1,0.1c-0.1,0-0.1,0-0.2,0c-1.7,0-3.4,0-5.1,0
		c-0.2,0-0.3,0-0.3,0.3c0,0.5,0,0.5,0.5,0.5c1.8,0,3.5,0,5.3,0c0.2,0,0.4,0,0.5-0.2c0.1-0.1,0.3-0.1,0.4,0c0.1,0.1,0.1,0.3,0,0.4
		c-0.1,0.1-0.3,0.1-0.4,0c-0.1-0.2-0.3-0.2-0.4-0.2c-1.9,0-3.7,0-5.6,0c-0.2,0-0.3,0.1-0.3,0.3c0,0.5,0,0.5,0.5,0.5
		c2.2,0,4.4,0,6.6,0c0.1,0,0.2,0,0.3,0c-0.1,0.1-0.2,0.1-0.3,0.1c-2.3,0-4.5,0-6.8,0c-0.2,0-0.3,0-0.3,0.3c0,0.6,0,0.6,0.6,0.6
		c2,0,4,0,6,0c0.2,0,0.3,0,0.4-0.2c0.1-0.1,0.3-0.1,0.4,0c0.1,0.1,0.1,0.3,0,0.4c-0.1,0.1-0.3,0.2-0.4,0c-0.1-0.1-0.2-0.2-0.4-0.2
		c-2.1,0-4.3,0-6.4,0c-0.2,0-0.3,0-0.3,0.2c0,0.6,0,0.6,0.6,0.6c1.9,0,3.8,0,5.7,0c0.1,0,0.1,0,0.2,0c0,0,0.1,0,0.1,0.1
		c0,0-0.1,0-0.1,0c-0.1,0-0.1,0-0.2,0c-2,0-4,0-6.1,0c-0.2,0-0.3,0.1-0.3,0.3c0,0.5-0.1,0.4,0.4,0.4c1.5,0,3,0,4.5,0
		c0.2,0,0.3,0,0.5-0.2c0.1-0.1,0.3-0.1,0.4,0c0.1,0.1,0.1,0.3,0,0.4c-0.1,0.1-0.3,0.2-0.4,0c-0.1-0.2-0.3-0.2-0.5-0.2
		c-1.5,0-3.1,0-4.6,0c-0.2,0-0.2,0.1-0.2,0.3c0,1.7,0,3.5,0,5.2c0,0.1,0,0.2,0,0.3c-0.1-0.1-0.1-0.2-0.1-0.3c0-1.7,0-3.4,0-5.1
		c0-0.2-0.1-0.3-0.3-0.3c-0.5,0-0.4-0.1-0.4,0.4c0,1.9,0,3.9,0,5.8c0,0.2,0,0.3,0.2,0.4c0.1,0.1,0.1,0.3,0,0.4
		c-0.1,0.1-0.3,0.1-0.4,0c-0.1-0.1-0.2-0.3,0-0.4c0.1-0.1,0.2-0.2,0.2-0.4c0-2,0-4,0-6c0-0.2-0.1-0.3-0.3-0.2c-0.1,0-0.3,0-0.4,0
		c-0.2,0-0.2,0.1-0.2,0.2c0,0.9,0,1.7,0,2.6c0,1.5,0,2.9,0,4.4c0,0.1,0,0.2-0.1,0.2c-0.1-0.1-0.1-0.2-0.1-0.3c0-2.3,0-4.5,0-6.8
		c0-0.2,0-0.3-0.3-0.3c-0.1,0-0.3,0-0.4,0c-0.2,0-0.2,0.1-0.2,0.2c0,2.1,0,4.2,0,6.3c0,0.1,0,0.3,0.2,0.4c0.2,0.1,0.1,0.3,0,0.4
		c-0.1,0.1-0.3,0.1-0.4,0c-0.1-0.1-0.1-0.3,0-0.4c0.1-0.1,0.1-0.2,0.1-0.4c0-2.1,0-4.2,0-6.3c0-0.2-0.1-0.2-0.3-0.2
		c-0.5,0-0.5,0-0.5,0.5c0,2,0,4.1,0,6.1c0,0.1,0,0.1,0,0.2c0,0.1,0,0.1-0.1,0.1c-0.1,0-0.1-0.1-0.1-0.1c0-0.1,0-0.1,0-0.2
		c0-2.1,0-4.2,0-6.3c0-0.2,0-0.3-0.3-0.3c-0.5,0-0.5,0-0.5,0.4c0,1.6,0,3.1,0,4.7c0,0.2,0,0.3,0.2,0.4c0.1,0.1,0.1,0.3,0,0.4
		c-0.1,0.1-0.3,0.1-0.4,0c-0.1-0.1-0.1-0.3,0-0.4c0.1-0.1,0.2-0.2,0.2-0.4c0-1.6,0-3.2,0-4.9c0-0.2-0.1-0.3-0.3-0.3
		c-1.7,0-3.4,0-5.1,0c-0.1,0-0.2,0-0.4,0c0.1-0.1,0.2-0.1,0.3-0.1c1.7,0,3.4,0,5.1,0c0.1,0,0.3,0.1,0.3-0.1c0-0.2,0.1-0.4,0-0.6
		c0-0.1-0.1,0-0.2,0c-1.7,0-3.4,0-5.1,0c-0.3,0-0.5,0-0.8,0c-0.2,0-0.3,0-0.4,0.2c-0.1,0.1-0.3,0.1-0.4,0c-0.1-0.1-0.1-0.3,0-0.4
		c0.1-0.1,0.3-0.1,0.4,0c0.1,0.2,0.2,0.2,0.4,0.2c2,0,3.9,0,5.9,0c0.2,0,0.3,0,0.3-0.3c0-0.6,0-0.6-0.6-0.6c-2.2,0-4.3,0-6.5,0
		c-0.1,0-0.1,0-0.2,0c0,0-0.1,0-0.1-0.1c0-0.1,0-0.1,0.1-0.1c0.1,0,0.1,0,0.2,0c2.3,0,4.5,0,6.8,0c0.2,0,0.3,0,0.3-0.3
		c0-0.6,0-0.6-0.6-0.6c-2,0-4,0-5.9,0c-0.2,0-0.3,0-0.4,0.2c-0.1,0.1-0.3,0.1-0.4,0c-0.1-0.1-0.1-0.3,0-0.4c0.1-0.1,0.3-0.2,0.4,0
		c0.1,0.2,0.3,0.2,0.5,0.2c2.1,0,4.2,0,6.3,0c0.2,0,0.3,0,0.3-0.3c0-0.5,0-0.5-0.5-0.5c-2,0-4.1,0-6.1,0c-0.1,0-0.1,0-0.2,0
		c0,0-0.1,0-0.1-0.1c0,0,0.1-0.1,0.1-0.1c0.1,0,0.1,0,0.2,0c2.1,0,4.2,0,6.4,0c0.2,0,0.3-0.1,0.3-0.3c0-0.5,0-0.5-0.5-0.5
		c-1.6,0-3.2,0-4.7,0c-0.2,0-0.3,0-0.4,0.2c-0.1,0.1-0.3,0.1-0.4,0c-0.1-0.1-0.1-0.3,0-0.4c0.1-0.1,0.3-0.2,0.4,0
		c0.1,0.1,0.3,0.2,0.4,0.2c1.6,0,3.3,0,4.9,0c0.3,0,0.3-0.1,0.3-0.3c0-1.7,0-3.4,0-5.1c0-0.1,0-0.2,0-0.2c0.1,0.1,0.1,0.2,0.1,0.3
		c0,1.7,0,3.5,0,5.2c0,0.2,0.1,0.2,0.2,0.2c0.5,0,0.5,0,0.5-0.5c0-1.8,0-3.6,0-5.4c0-0.1,0-0.3-0.1-0.4c-0.2-0.1-0.1-0.3,0-0.4
		c0.1-0.1,0.3-0.1,0.4,0C17,7.8,17,8,16.8,8.1c-0.1,0.1-0.1,0.2-0.1,0.3c0,1.9,0,3.8,0,5.7c0,0.2,0,0.2,0.2,0.2c0.6,0,0.6,0,0.6-0.6
		c0-2.2,0-4.4,0-6.5C17.5,7.2,17.4,7.1,17.5,7z"/>
	<path class="st6" d="M12.9,13.7c-0.6,0-1.2,0-1.8,0c-1.6,0-2.8,1.1-3,2.7c-0.2,1.6,0.8,2.9,2.3,3.3c0.2,0,0.3,0.1,0.5,0.1
		c0.1,0,0.2,0.1,0.2,0.2c0,0.1-0.1,0.2-0.2,0.2c-1.5,0-3-1.4-3.1-2.9C7.6,16,8,14.9,9,14.1c0.6-0.5,1.3-0.7,2.1-0.7
		c1.2,0,2.3,0,3.5,0c0.2,0,0.2,0,0.2-0.2c0-0.4,0-0.8,0-1.2c0-0.1,0-0.2-0.1-0.3c-0.2-0.2-0.2-0.5,0-0.6c0.2-0.2,0.5-0.1,0.6,0
		c0.2,0.2,0.2,0.4,0,0.6c-0.1,0.1-0.2,0.2-0.2,0.4c0,0.5,0,1,0,1.5c0,0.2,0,0.2-0.2,0.2C14.2,13.7,13.5,13.7,12.9,13.7z"/>
	<path class="st6" d="M23.5,19.8c0.6,0,1.2,0,1.8,0c1.4,0,2.6-0.9,2.9-2.2c0.4-1.4-0.2-2.8-1.5-3.5c-0.1,0-0.2,0-0.2-0.1
		c0-0.1,0-0.2,0.1-0.2c0.1-0.1,0.1,0,0.2,0c1.3,0.6,2,2,1.8,3.6c-0.2,1.3-1.2,2.4-2.6,2.7c-0.3,0.1-0.5,0.1-0.8,0.1
		c-1.1,0-2.3,0-3.4,0c-0.2,0-0.3,0.1-0.3,0.3c0,0.7,0,1.4,0,2.1c0,0.1,0,0.3,0.1,0.4c0.2,0.2,0.1,0.5-0.1,0.6
		c-0.2,0.1-0.5,0.1-0.6,0c-0.2-0.2-0.2-0.5,0-0.6c0.1-0.1,0.2-0.2,0.2-0.4c0-0.8,0-1.7,0-2.5c0-0.2,0.1-0.2,0.2-0.2
		C22.1,19.8,22.8,19.8,23.5,19.8z"/>
	<path class="st6" d="M15.1,22.1c0,0.6,0,1.4,0,2.1c0.1,1.3,1.2,2.4,2.5,2.6c1.7,0.3,3.1-0.9,3.4-2.3c0-0.1,0.1-0.2,0.2-0.2
		c0.2,0,0.1,0.1,0.1,0.2c-0.3,1.6-1.8,2.7-3.4,2.6c-1.5-0.1-2.7-1-3.1-2.3c-0.1-0.4-0.1-0.7-0.1-1.1c0-1.1,0-2.3,0-3.4
		c0-0.2-0.1-0.3-0.3-0.3c-0.4,0-0.7,0-1.1,0c-0.1,0-0.2,0-0.3,0.1c-0.2,0.2-0.4,0.2-0.6,0.1c-0.2-0.2-0.2-0.4,0-0.6
		c0.2-0.2,0.4-0.2,0.6,0c0.1,0.1,0.2,0.1,0.3,0.1c0.5,0,1,0,1.5,0c0.2,0,0.2,0.1,0.2,0.2C15.1,20.6,15.1,21.3,15.1,22.1z"/>
	<path class="st5" d="M21.2,11.6c0-0.7,0-1.4,0-2.1c0-0.2,0-0.5-0.1-0.7c0-0.1,0-0.2,0.1-0.2c0.1,0,0.2,0,0.2,0.1
		c0.1,0.3,0.1,0.6,0.1,0.9c0,1.2,0,2.3,0,3.5c0,0.2,0,0.2,0.2,0.2c1.1,0,2.1,0,3.2,0c0.2,0,0.3,0,0.4-0.2c0.1-0.2,0.4-0.2,0.6-0.1
		c0.2,0.1,0.2,0.4,0.1,0.6c-0.1,0.2-0.4,0.3-0.6,0.2c-0.2-0.1-0.4-0.1-0.6-0.1c-1.1,0-2.3,0-3.4,0c-0.2,0-0.3,0-0.3-0.2
		C21.2,12.8,21.2,12.2,21.2,11.6C21.2,11.6,21.2,11.6,21.2,11.6z"/>
	<path class="st6" d="M15.1,9.2c0,0.1,0,0.1,0.1,0.2c0.2,0.2,0.2,0.5,0.1,0.6c-0.2,0.2-0.4,0.2-0.6,0c-0.2-0.2-0.2-0.4,0-0.6
		c0.1-0.1,0.1-0.2,0.1-0.3c0.2-1.4,1-2.3,2.3-2.7c1.4-0.4,2.6-0.1,3.6,1c0.1,0.1,0.2,0.1,0,0.3c-0.1,0.1-0.2,0.1-0.3,0
		c-1.2-1.4-3.3-1.2-4.3-0.3C15.6,7.9,15.2,8.5,15.1,9.2z"/>
	<path class="st7" d="M7.9,24.3c-0.4-0.3-0.6-0.8-0.9-1.2c-0.6-1-1.1-2-1.5-3.2c-0.1-0.3-0.2-0.6-0.2-0.9c0.2,0,0.3,0.1,0.4,0.2
		C6,20,6.2,20.6,6.4,21.2c0.4,1,0.9,1.9,1.5,2.8C8,24.1,8,24.2,8.1,24.3C8.1,24.4,8,24.3,7.9,24.3z"/>
	<path class="st8" d="M8.7,7.2c0,0.1,0.1,0.1,0.2,0.2C9,7.4,9.1,7.4,9,7.5C8.6,8.1,8.2,8.6,7.8,9.2C7.6,9,7.4,9,7.4,8.8
		c0.2-0.4,0.5-0.7,0.7-1C8.3,7.6,8.5,7.3,8.7,7.2z"/>
	<path class="st9" d="M5.8,19.4c-0.2,0-0.3-0.1-0.4-0.2c-0.2-0.5-0.2-1-0.3-1.6c0-0.3-0.1-0.6-0.1-0.9c0.3,0.1,0.4,0.2,0.5,0.5
		c0,0.7,0.1,1.4,0.3,2.1C5.8,19.2,5.8,19.3,5.8,19.4z"/>
	<path class="st10" d="M7.4,8.8c0.1,0.2,0.3,0.2,0.4,0.4c-0.3,0.5-0.6,1-0.9,1.4c-0.1,0-0.2-0.1-0.3-0.2c-0.1,0-0.1-0.1-0.1-0.2
		C6.7,9.7,7,9.2,7.4,8.8z"/>
	<path class="st11" d="M5.5,17.1c0-0.3-0.3-0.3-0.5-0.5c0-0.6,0-1.3,0-1.9c0,0,0-0.1,0-0.1c0.1,0.1,0.2,0.2,0.3,0.3
		c0.1,0,0.1,0.1,0.1,0.2C5.5,15.7,5.5,16.4,5.5,17.1z"/>
	<path class="st12" d="M5.6,15c-0.1-0.1-0.2-0.1-0.3-0.2c-0.1-0.1-0.2-0.1-0.2-0.3c0-0.5,0.1-1,0.3-1.5c0.1,0.1,0.3,0.2,0.4,0.3
		C5.8,14,5.7,14.5,5.6,15z"/>
	<path class="st13" d="M6.5,10.2c0,0.1,0.1,0.1,0.2,0.2c0.1,0.1,0.2,0.1,0.2,0.2c-0.2,0.5-0.4,0.9-0.6,1.4c-0.1,0-0.2-0.1-0.3-0.2
		c-0.1,0-0.1-0.1-0.1-0.2C6,11.1,6.3,10.6,6.5,10.2z"/>
	<path class="st14" d="M5.9,11.6c0,0.1,0.1,0.2,0.2,0.2c0.1,0,0.2,0.1,0.2,0.2c-0.1,0.5-0.3,0.9-0.4,1.4c-0.2-0.1-0.4-0.1-0.4-0.3
		C5.5,12.6,5.7,12.1,5.9,11.6z"/>
	<path class="st15" d="M7.9,24.3c0-0.1,0.1,0,0.2-0.1c0.5,0.6,1,1.2,1.6,1.7c0.3,0.3,0.7,0.6,1,0.9c-0.3-0.1-0.5-0.3-0.7-0.5
		c-0.7-0.6-1.3-1.2-1.9-1.9C8,24.5,8,24.4,7.9,24.3z"/>
	<path class="st16" d="M18,18.2c-0.5,0-0.5,0-0.5-0.5c0-0.5-0.1-0.4,0.5-0.4c0.5,0,0.5,0,0.5,0.5C18.5,18.2,18.6,18.2,18,18.2z"/>
	<path class="st17" d="M18,16.2c0.5,0,0.5,0,0.5,0.5c0,0.5,0,0.5-0.5,0.5c-0.5,0-0.5,0-0.5-0.5C17.6,16.2,17.6,16.2,18,16.2z"/>
	<path class="st18" d="M19,18.2c-0.4,0-0.4,0-0.4-0.4c0-0.5,0-0.5,0.5-0.5c0.5,0,0.4-0.1,0.4,0.4c0,0,0,0,0,0
		C19.5,18.2,19.5,18.2,19,18.2z"/>
	<path class="st19" d="M18.6,16.7c0-0.4,0-0.4,0.5-0.4c0.4,0,0.4,0,0.4,0.4c0,0.5,0,0.5-0.5,0.5C18.6,17.2,18.6,17.2,18.6,16.7z"/>
	<path class="st20" d="M17.5,16.7c0,0.5,0.1,0.5-0.4,0.5c-0.1,0-0.1,0-0.2,0c-0.1,0-0.2-0.1-0.2-0.2c0-0.1,0-0.1,0-0.2
		c0-0.6,0-0.6,0.6-0.6c0.2,0,0.2,0,0.2,0.2C17.5,16.5,17.5,16.6,17.5,16.7z"/>
	<path class="st16" d="M18,16.1c-0.5,0-0.5,0-0.5-0.5c0-0.3,0-0.3,0.3-0.3c0.6,0,0.6,0,0.6,0.6c0,0.2,0,0.3-0.2,0.3
		C18.2,16.1,18.1,16.1,18,16.1z"/>
	<path class="st17" d="M19,16.1c-0.4,0-0.4,0-0.4-0.4c0-0.1,0-0.1,0-0.2c0-0.2,0-0.2,0.2-0.2c0.2,0,0.3,0,0.5,0
		c0.2,0,0.2,0.1,0.2,0.2c0,0,0,0.1,0,0.1C19.5,16.1,19.5,16.1,19,16.1z"/>
	<path class="st17" d="M15.8,16.7c0-0.5,0-0.4,0.5-0.5c0.2,0,0.3,0.1,0.3,0.3c0,0,0,0.1,0,0.1c0,0.5,0,0.5-0.5,0.5
		c-0.2,0-0.3-0.1-0.2-0.2C15.8,16.8,15.8,16.8,15.8,16.7z"/>
	<path class="st16" d="M18,18.3c0.5,0,0.5,0,0.5,0.6c0,0.1,0,0.2-0.2,0.2c-0.2,0-0.4,0-0.6,0c-0.1,0-0.2-0.1-0.2-0.2
		c0,0,0-0.1,0-0.1C17.6,18.3,17.6,18.3,18,18.3z"/>
	<path class="st21" d="M18,15.2c-0.4,0-0.4,0-0.5-0.4c0-0.3,0-0.3,0.3-0.3c0,0,0.1,0,0.1,0c0.6,0,0.5-0.1,0.5,0.5
		c0,0.2-0.1,0.2-0.2,0.2C18.2,15.2,18.1,15.2,18,15.2z"/>
	<path class="st22" d="M15.8,17.7c0-0.5,0-0.4,0.4-0.5c0.2,0,0.3,0.1,0.3,0.3c0,0.1,0,0.2,0,0.3c0,0.2-0.1,0.3-0.3,0.3
		C15.8,18.1,15.8,18.2,15.8,17.7z"/>
	<path class="st17" d="M19,15.2c-0.4,0-0.4,0-0.4-0.4c0-0.3,0-0.3,0.3-0.3c0,0,0,0,0,0c0.6,0,0.5,0,0.5,0.6c0,0.1,0,0.2-0.2,0.2
		C19.2,15.2,19.1,15.2,19,15.2z"/>
	<path class="st23" d="M19,19c-0.4,0-0.4,0-0.5-0.4c0-0.3,0.1-0.3,0.3-0.3c0,0,0.1,0,0.1,0c0.5,0,0.5,0,0.5,0.5
		c0,0.2-0.1,0.3-0.3,0.3C19.2,19,19.1,19,19,19z"/>
	<path class="st0" d="M20.3,16.7c0,0.4,0,0.4-0.5,0.5c-0.2,0-0.3,0-0.3-0.3c0-0.1,0-0.1,0-0.2c0-0.5,0-0.5,0.5-0.5
		c0.2,0,0.3,0.1,0.2,0.2C20.3,16.6,20.3,16.6,20.3,16.7z"/>
	<path class="st0" d="M17.5,17.7c0,0.4,0,0.4-0.4,0.4c-0.4,0-0.4,0-0.4-0.5c0-0.4,0-0.5,0.5-0.4c0.4,0,0.4-0.1,0.4,0.4
		C17.5,17.7,17.5,17.7,17.5,17.7z"/>
	<path class="st17" d="M17.5,15.8c0,0.4,0,0.4-0.5,0.4c-0.3,0-0.3,0.1-0.3-0.5c0-0.4,0-0.3,0.5-0.3C17.5,15.3,17.5,15.3,17.5,15.8z"
		/>
	<path class="st0" d="M19.6,17.7c0-0.4,0-0.4,0.5-0.4c0.2,0,0.3,0.1,0.3,0.3c0,0,0,0.1,0,0.1c0,0.5,0,0.5-0.5,0.5
		c-0.2,0-0.2-0.1-0.2-0.2C19.6,17.9,19.6,17.8,19.6,17.7z"/>
	<path class="st19" d="M15.8,15.7c0-0.4,0-0.4,0.4-0.4c0.3,0,0.3,0,0.3,0.3c0,0.5,0,0.5-0.4,0.5C15.8,16.1,15.8,16.1,15.8,15.7z"/>
	<path class="st16" d="M20.3,15.7c0,0.5,0.1,0.4-0.4,0.4c-0.4,0-0.3,0.1-0.3-0.3c0-0.5,0-0.5,0.5-0.5c0.2,0,0.3,0.1,0.3,0.3
		C20.3,15.6,20.3,15.7,20.3,15.7z"/>
	<path class="st21" d="M15.8,18.6c0-0.4-0.1-0.3,0.4-0.3c0.4,0,0.4,0,0.4,0.4c0,0.4,0,0.3-0.5,0.3C15.8,19,15.8,19,15.8,18.6z"/>
	<path class="st19" d="M17.1,15.2c-0.4,0-0.4,0-0.4-0.4c0-0.4,0-0.4,0.4-0.4c0.4,0,0.4,0,0.4,0.4C17.5,15.3,17.5,15.2,17.1,15.2z"/>
	<path class="st19" d="M20.3,14.9c0,0.1,0,0.2,0,0.2c0,0.1,0,0.1-0.1,0.1c-0.2,0-0.4,0-0.6,0c0,0,0-0.1,0-0.1c0-0.1,0-0.1,0-0.2
		c0-0.4,0-0.4,0.4-0.4C20.3,14.5,20.3,14.5,20.3,14.9z"/>
	<path class="st24" d="M19.6,18.6c0-0.4-0.1-0.4,0.5-0.4c0.2,0,0.3,0,0.2,0.5c0,0.4-0.4,0.2-0.5,0.2C19.4,19,19.6,18.7,19.6,18.6z"
		/>
	<path class="st17" d="M17.1,18.3c0,0,0.1,0,0.1,0c0.2,0,0.3,0,0.3,0.3c0,0.5,0,0.5-0.5,0.5c-0.3,0-0.3,0-0.3-0.3
		C16.7,18.3,16.7,18.3,17.1,18.3z"/>
	<path class="st25" d="M16.6,14.9c0,0.4,0,0.4-0.4,0.4c-0.3,0-0.3,0-0.3-0.6c0-0.3,0.3-0.1,0.4-0.2C16.6,14.5,16.6,14.5,16.6,14.9z"
		/>
</g>
</svg>
